HIERARCHY
ROOT root
{
	OFFSET 0.000000 0.000000 0.000000
	CHANNELS 6 Xposition Yposition Zposition Zrotation Yrotation Xrotation
	JOINT lhip
	{
		OFFSET 0.058581 -0.082280 -0.017664
		CHANNELS 3 Zrotation Yrotation Xrotation
		JOINT lknee
		{
			OFFSET 0.043451 -0.386469 0.008037
			CHANNELS 3 Zrotation Yrotation Xrotation
			JOINT lankle
			{
				OFFSET -0.014790 -0.426874 -0.037428
				CHANNELS 3 Zrotation Yrotation Xrotation
				JOINT ltoe
				{
					OFFSET 0.041054 -0.060286 0.122042
					CHANNELS 3 Zrotation Yrotation Xrotation
					End Site
					{
						OFFSET 0.000000 0.000000 0.000000
					}
				}
			}
		}
	}
	JOINT rhip
	{
		OFFSET -0.060310 -0.090513 -0.013543
		CHANNELS 3 Zrotation Yrotation Xrotation
		JOINT rknee
		{
			OFFSET -0.043257 -0.383688 -0.004843
			CHANNELS 3 Zrotation Yrotation Xrotation
			JOINT rankle
			{
				OFFSET 0.019056 -0.420046 -0.034562
				CHANNELS 3 Zrotation Yrotation Xrotation
				JOINT rtoe
				{
					OFFSET -0.034840 -0.062106 0.130323
					CHANNELS 3 Zrotation Yrotation Xrotation
					End Site
					{
						OFFSET 0.000000 0.000000 0.000000
					}
				}
			}
		}
	}
	JOINT lowerback
	{
		OFFSET 0.004439 0.124404 -0.038385
		CHANNELS 3 Zrotation Yrotation Xrotation
		JOINT upperback
		{
			OFFSET 0.004488 0.137956 0.026820
			CHANNELS 3 Zrotation Yrotation Xrotation
			JOINT chest
			{
				OFFSET -0.002265 0.056032 0.002855
				CHANNELS 3 Zrotation Yrotation Xrotation
				JOINT lowerneck
				{
					OFFSET -0.013390 0.211636 -0.033468
					CHANNELS 3 Zrotation Yrotation Xrotation
					JOINT upperneck
					{
						OFFSET 0.010113 0.088937 0.050410
						CHANNELS 3 Zrotation Yrotation Xrotation
						End Site
						{
							OFFSET 0.000000 0.000000 0.000000
						}
					}
				}
				JOINT lclavicle
				{
					OFFSET 0.071702 0.114000 -0.018898
					CHANNELS 3 Zrotation Yrotation Xrotation
					JOINT lshoulder
					{
						OFFSET 0.122921 0.045205 -0.019046
						CHANNELS 3 Zrotation Yrotation Xrotation
						JOINT lelbow
						{
							OFFSET 0.255332 -0.015649 -0.022946
							CHANNELS 3 Zrotation Yrotation Xrotation
							JOINT lwrist
							{
								OFFSET 0.265709 0.012698 -0.007375
								CHANNELS 3 Zrotation Yrotation Xrotation
								End Site
								{
									OFFSET 0.000000 0.000000 0.000000
								}
							}
						}
					}
				}
				JOINT rclavicle
				{
					OFFSET -0.082954 0.112472 -0.023707
					CHANNELS 3 Zrotation Yrotation Xrotation
					JOINT rshoulder
					{
						OFFSET -0.113228 0.046853 -0.008472
						CHANNELS 3 Zrotation Yrotation Xrotation
						JOINT relbow
						{
							OFFSET -0.260127 -0.014369 -0.031269
							CHANNELS 3 Zrotation Yrotation Xrotation
							JOINT rwrist
							{
								OFFSET -0.269108 0.006794 -0.006027
								CHANNELS 3 Zrotation Yrotation Xrotation
								End Site
								{
									OFFSET 0.000000 0.000000 0.000000
								}
							}
						}
					}
				}
			}
		}
	}
}
MOTION
Frames: 8
Frame Time: 0.033333
-0.027491 0.106106 0.981307 -178.923667 0.629136 93.076238 6.601246 5.424440 0.449430 -2.296161 -0.612320 -3.959436 1.563719 10.456879 -10.015917 0.000000 -0.000000 0.000000 -7.514932 -7.436811 -5.518418 2.508531 -9.968896 5.948770 3.064349 -7.830619 -5.896981 0.000000 -0.000000 0.000000 1.830719 0.506547 -4.507118 1.087895 -2.579643 8.542072 -1.212245 -0.074496 -5.448326 -2.932675 4.043325 -5.909836 -0.531819 -0.966324 8.221431 -34.194721 -1.524054 1.849293 -52.482340 -5.960774 15.689771 7.518778 -20.561089 -0.481499 -2.148431 -11.829694 0.021546 34.375961 5.941134 5.358517 47.383882 7.406640 8.239043 -14.669178 15.591321 -20.225162 5.763819 10.648221 -13.112310 
-0.027724 0.106150 0.981315 -179.092178 0.655162 92.969157 6.598972 5.479609 0.641040 -2.243181 -0.685251 -4.006961 1.610862 10.555751 -10.027071 0.000000 -0.000000 0.000000 -7.523169 -7.399933 -5.312365 2.609366 -9.502027 5.667958 3.246877 -8.043013 -5.988215 0.000000 -0.000000 0.000000 1.942781 0.423363 -4.361214 0.959136 -2.493134 8.317090 -1.165470 0.002020 -5.049896 -2.848548 4.120914 -6.473231 -0.700369 -0.993900 8.689606 -34.127030 -1.502732 1.786889 -52.482743 -6.107941 15.584486 7.528197 -20.527776 0.066046 -2.565597 -11.604392 0.352423 34.407804 5.898045 5.410826 47.506201 7.542178 8.175899 -15.055388 15.761682 -20.255510 5.991480 10.388556 -13.164469 
-0.027992 0.106014 0.981294 -179.218355 0.622235 92.947670 6.527714 5.506406 0.693617 -2.263531 -0.589291 -4.070194 1.673269 10.595237 -10.020750 0.000000 -0.000000 0.000000 -7.570170 -7.279417 -5.322540 2.574518 -9.473418 5.686375 3.377047 -8.217583 -5.941948 0.000000 -0.000000 0.000000 1.914747 0.363075 -4.229189 0.945815 -2.420626 8.240046 -1.139200 -0.003357 -4.968210 -2.842016 4.179142 -6.682233 -0.742804 -1.051778 8.739431 -34.136038 -1.530272 1.798594 -52.496847 -6.141458 15.520274 7.716296 -20.461025 0.219962 -3.095170 -11.685140 0.689035 34.531004 5.869475 5.461115 47.552941 7.504208 8.093112 -15.564129 16.040231 -20.456439 6.115341 10.288189 -13.125671 
-0.028585 0.105455 0.981639 -179.446171 0.660738 92.900220 6.503596 5.550323 0.792172 -2.272006 -0.534230 -4.169587 1.798886 10.579491 -10.038037 0.000000 -0.000000 0.000000 -7.559126 -6.982184 -5.423236 2.517018 -9.365084 5.612538 3.413670 -8.257350 -5.919654 0.000000 -0.000000 0.000000 1.953913 0.222701 -3.823979 0.964218 -2.283933 7.956109 -1.152347 0.136047 -4.938092 -2.768710 4.082757 -7.054168 -0.808561 -1.156933 9.185401 -34.224556 -1.445845 1.728652 -52.499225 -6.165561 15.517270 7.976271 -20.357705 0.345529 -3.571797 -11.347042 1.002852 34.599113 5.785632 5.735880 47.732263 7.440022 8.080329 -16.256911 16.440761 -20.775551 6.164795 10.183745 -13.404900 
-0.028695 0.105392 0.981726 -179.457569 0.689083 92.930946 6.519423 5.556324 0.743835 -2.269052 -0.511259 -4.156006 1.778542 10.581763 -10.035305 0.000000 -0.000000 0.000000 -7.534444 -6.963382 -5.446154 2.534132 -9.399114 5.560422 3.362032 -8.269843 -5.866400 0.000000 -0.000000 0.000000 1.991632 0.203862 -3.852465 0.956547 -2.280837 7.924493 -1.165495 0.118883 -4.875944 -2.758958 4.081610 -7.112390 -0.824753 -1.186330 9.203506 -34.237629 -1.436268 1.724452 -52.492468 -6.203084 15.504543 8.043337 -20.288816 0.361231 -3.634397 -11.369120 1.040351 34.580957 5.795960 5.700642 47.785090 7.432737 8.087035 -16.282981 16.419595 -20.738674 6.129780 10.208554 -13.455187 
-0.028797 0.105354 0.981722 -179.516374 0.687918 92.904802 6.513734 5.589027 0.783989 -2.272579 -0.470305 -4.178499 1.753946 10.568068 -10.057628 0.000000 -0.000000 0.000000 -7.550439 -6.922416 -5.458888 2.540489 -9.421603 5.538944 3.394860 -8.232970 -5.808981 0.000000 -0.000000 0.000000 1.983804 0.192706 -3.830718 0.938446 -2.256310 7.934419 -1.165480 0.099895 -4.820307 -2.740056 4.177067 -7.055570 -0.815132 -1.180843 9.173604 -34.204287 -1.535409 1.815902 -52.460792 -6.266316 15.432931 8.074645 -20.243479 0.306959 -3.653266 -11.495265 1.013937 34.553408 5.830081 5.749792 47.873406 7.446189 8.059684 -16.358563 16.430841 -20.765360 6.096565 10.165718 -13.546116 
-0.028883 0.105533 0.981740 -179.555895 0.718701 92.926639 6.535061 5.558014 0.774749 -2.259984 -0.404731 -4.176531 1.784513 10.587994 -10.007724 0.000000 -0.000000 0.000000 -7.508726 -6.937508 -5.508585 2.514369 -9.457878 5.572705 3.326922 -8.204138 -5.680137 0.000000 -0.000000 0.000000 1.973071 0.234859 -3.923517 0.958260 -2.271738 8.003275 -1.173859 0.091374 -4.861330 -2.675077 4.156895 -6.993792 -0.842068 -1.136110 9.250604 -34.168511 -1.608670 1.844572 -52.471455 -6.280278 15.421616 8.079540 -20.081484 0.159189 -3.650358 -11.474122 1.018922 34.560485 5.787014 5.841638 47.913711 7.457961 8.008125 -16.411027 16.442526 -20.833770 6.027729 10.177808 -13.491077 
-0.028991 0.106047 0.981674 -179.542346 0.744641 92.911484 6.577539 5.588297 0.872141 -2.292660 -0.416814 -4.311957 1.782940 10.581044 -9.935340 0.000000 -0.000000 0.000000 -7.511856 -6.932774 -5.380730 2.560817 -9.490641 5.440863 3.321753 -8.191256 -5.631963 0.000000 -0.000000 0.000000 1.967403 0.200267 -4.006838 0.943005 -2.280915 8.017781 -1.166985 0.089419 -4.852526 -2.621573 4.191371 -6.989206 -0.882026 -1.126768 9.434561 -34.134561 -1.507695 1.897160 -52.473920 -6.326954 15.321256 8.062939 -20.159495 0.256922 -3.769754 -11.428539 0.961252 34.537563 5.717677 5.891970 47.956948 7.445347 8.015617 -16.390664 16.439625 -20.771525 5.992328 10.240175 -13.533298 
